HIERARCHY
ROOT Hips
{
  OFFSET 0.000000 95.000000 0.000000
  CHANNELS 6 Xposition Yposition Zposition Zrotation Xrotation Yrotation
  JOINT Spine
  {
    OFFSET 0.000000 10.000000 0.000000
    CHANNELS 3 Zrotation Xrotation Yrotation
    JOINT Spine1
    {
      OFFSET 0.000000 12.000000 0.000000
      CHANNELS 3 Zrotation Xrotation Yrotation
      JOINT Spine2
      {
        OFFSET 0.000000 12.000000 0.000000
        CHANNELS 3 Zrotation Xrotation Yrotation
        JOINT Neck
        {
          OFFSET 0.000000 10.000000 0.000000
          CHANNELS 3 Zrotation Xrotation Yrotation
          JOINT Head
          {
            OFFSET 0.000000 8.000000 0.000000
            CHANNELS 3 Zrotation Xrotation Yrotation
            End Site
            {
              OFFSET 0.000000 10.000000 0.000000
            }
          }
        }
        JOINT LeftShoulder
        {
          OFFSET 6.000000 8.000000 0.000000
          CHANNELS 3 Zrotation Xrotation Yrotation
          JOINT LeftArm
          {
            OFFSET 12.000000 0.000000 0.000000
            CHANNELS 3 Zrotation Xrotation Yrotation
            JOINT LeftForeArm
            {
              OFFSET 24.000000 0.000000 0.000000
              CHANNELS 3 Zrotation Xrotation Yrotation
              JOINT LeftHand
              {
                OFFSET 22.000000 0.000000 0.000000
                CHANNELS 3 Zrotation Xrotation Yrotation
                JOINT LeftHandThumb1
                {
                  OFFSET 1.800000 -1.400000 0.500000
                  CHANNELS 3 Zrotation Xrotation Yrotation
                  JOINT LeftHandThumb2
                  {
                    OFFSET 2.400000 0.000000 0.000000
                    CHANNELS 3 Zrotation Xrotation Yrotation
                    JOINT LeftHandThumb3
                    {
                      OFFSET 1.900000 0.000000 0.000000
                      CHANNELS 3 Zrotation Xrotation Yrotation
                      End Site
                      {
                        OFFSET 1.600000 0.000000 0.000000
                      }
                    }
                  }
                }
                JOINT LeftHandIndex1
                {
                  OFFSET 6.600000 1.200000 0.300000
                  CHANNELS 3 Zrotation Xrotation Yrotation
                  JOINT LeftHandIndex2
                  {
                    OFFSET 2.000000 0.000000 0.000000
                    CHANNELS 3 Zrotation Xrotation Yrotation
                    JOINT LeftHandIndex3
                    {
                      OFFSET 1.200000 0.000000 0.000000
                      CHANNELS 3 Zrotation Xrotation Yrotation
                      End Site
                      {
                        OFFSET 1.000000 0.000000 0.000000
                      }
                    }
                  }
                }
                JOINT LeftHandMiddle1
                {
                  OFFSET 7.200000 0.000000 0.300000
                  CHANNELS 3 Zrotation Xrotation Yrotation
                  JOINT LeftHandMiddle2
                  {
                    OFFSET 3.000000 0.000000 0.000000
                    CHANNELS 3 Zrotation Xrotation Yrotation
                    JOINT LeftHandMiddle3
                    {
                      OFFSET 2.000000 0.000000 0.000000
                      CHANNELS 3 Zrotation Xrotation Yrotation
                      End Site
                      {
                        OFFSET 1.600000 0.000000 0.000000
                      }
                    }
                  }
                }
                JOINT LeftHandRing1
                {
                  OFFSET 7.100000 -1.000000 0.400000
                  CHANNELS 3 Zrotation Xrotation Yrotation
                  JOINT LeftHandRing2
                  {
                    OFFSET 2.600000 0.000000 0.000000
                    CHANNELS 3 Zrotation Xrotation Yrotation
                    JOINT LeftHandRing3
                    {
                      OFFSET 1.600000 0.000000 0.000000
                      CHANNELS 3 Zrotation Xrotation Yrotation
                      End Site
                      {
                        OFFSET 1.300000 0.000000 0.000000
                      }
                    }
                  }
                }
                JOINT LeftHandPinky1
                {
                  OFFSET 6.500000 -2.000000 0.500000
                  CHANNELS 3 Zrotation Xrotation Yrotation
                  JOINT LeftHandPinky2
                  {
                    OFFSET 1.900000 0.000000 0.000000
                    CHANNELS 3 Zrotation Xrotation Yrotation
                    JOINT LeftHandPinky3
                    {
                      OFFSET 1.400000 0.000000 0.000000
                      CHANNELS 3 Zrotation Xrotation Yrotation
                      End Site
                      {
                        OFFSET 1.300000 0.000000 0.000000
                      }
                    }
                  }
                }
              }
            }
          }
        }
        JOINT RightShoulder
        {
          OFFSET -6.000000 8.000000 0.000000
          CHANNELS 3 Zrotation Xrotation Yrotation
          JOINT RightArm
          {
            OFFSET -12.000000 0.000000 0.000000
            CHANNELS 3 Zrotation Xrotation Yrotation
            JOINT RightForeArm
            {
              OFFSET -24.000000 0.000000 0.000000
              CHANNELS 3 Zrotation Xrotation Yrotation
              JOINT RightHand
              {
                OFFSET -22.000000 0.000000 0.000000
                CHANNELS 3 Zrotation Xrotation Yrotation
                JOINT RightHandThumb1
                {
                  OFFSET -1.800000 -1.400000 0.500000
                  CHANNELS 3 Zrotation Xrotation Yrotation
                  JOINT RightHandThumb2
                  {
                    OFFSET -2.400000 0.000000 0.000000
                    CHANNELS 3 Zrotation Xrotation Yrotation
                    JOINT RightHandThumb3
                    {
                      OFFSET -1.900000 0.000000 0.000000
                      CHANNELS 3 Zrotation Xrotation Yrotation
                      End Site
                      {
                        OFFSET -1.600000 0.000000 0.000000
                      }
                    }
                  }
                }
                JOINT RightHandIndex1
                {
                  OFFSET -6.600000 1.200000 0.300000
                  CHANNELS 3 Zrotation Xrotation Yrotation
                  JOINT RightHandIndex2
                  {
                    OFFSET -2.000000 0.000000 0.000000
                    CHANNELS 3 Zrotation Xrotation Yrotation
                    JOINT RightHandIndex3
                    {
                      OFFSET -1.200000 0.000000 0.000000
                      CHANNELS 3 Zrotation Xrotation Yrotation
                      End Site
                      {
                        OFFSET -1.000000 0.000000 0.000000
                      }
                    }
                  }
                }
                JOINT RightHandMiddle1
                {
                  OFFSET -7.200000 0.000000 0.300000
                  CHANNELS 3 Zrotation Xrotation Yrotation
                  JOINT RightHandMiddle2
                  {
                    OFFSET -3.000000 0.000000 0.000000
                    CHANNELS 3 Zrotation Xrotation Yrotation
                    JOINT RightHandMiddle3
                    {
                      OFFSET -2.000000 0.000000 0.000000
                      CHANNELS 3 Zrotation Xrotation Yrotation
                      End Site
                      {
                        OFFSET -1.600000 0.000000 0.000000
                      }
                    }
                  }
                }
                JOINT RightHandRing1
                {
                  OFFSET -7.100000 -1.000000 0.400000
                  CHANNELS 3 Zrotation Xrotation Yrotation
                  JOINT RightHandRing2
                  {
                    OFFSET -2.600000 0.000000 0.000000
                    CHANNELS 3 Zrotation Xrotation Yrotation
                    JOINT RightHandRing3
                    {
                      OFFSET -1.600000 0.000000 0.000000
                      CHANNELS 3 Zrotation Xrotation Yrotation
                      End Site
                      {
                        OFFSET -1.300000 0.000000 0.000000
                      }
                    }
                  }
                }
                JOINT RightHandPinky1
                {
                  OFFSET -6.500000 -2.000000 0.500000
                  CHANNELS 3 Zrotation Xrotation Yrotation
                  JOINT RightHandPinky2
                  {
                    OFFSET -1.900000 0.000000 0.000000
                    CHANNELS 3 Zrotation Xrotation Yrotation
                    JOINT RightHandPinky3
                    {
                      OFFSET -1.400000 0.000000 0.000000
                      CHANNELS 3 Zrotation Xrotation Yrotation
                      End Site
                      {
                        OFFSET -1.300000 0.000000 0.000000
                      }
                    }
                  }
                }
              }
            }
          }
        }
      }
    }
  }
  JOINT LeftUpLeg
  {
    OFFSET 10.000000 -5.000000 0.000000
    CHANNELS 3 Zrotation Xrotation Yrotation
    JOINT LeftLeg
    {
      OFFSET 0.000000 -42.000000 0.000000
      CHANNELS 3 Zrotation Xrotation Yrotation
      JOINT LeftFoot
      {
        OFFSET 0.000000 -42.000000 4.000000
        CHANNELS 3 Zrotation Xrotation Yrotation
        End Site
        {
          OFFSET 0.000000 0.000000 12.000000
        }
      }
    }
  }
  JOINT RightUpLeg
  {
    OFFSET -10.000000 -5.000000 0.000000
    CHANNELS 3 Zrotation Xrotation Yrotation
    JOINT RightLeg
    {
      OFFSET 0.000000 -42.000000 0.000000
      CHANNELS 3 Zrotation Xrotation Yrotation
      JOINT RightFoot
      {
        OFFSET 0.000000 -42.000000 4.000000
        CHANNELS 3 Zrotation Xrotation Yrotation
        End Site
        {
          OFFSET 0.000000 0.000000 12.000000
        }
      }
    }
  }
}
MOTION
Frames: 7
Frame Time: 0.033333
0.0000 95.0000 0.0000 0.0000 0.0000 0.0000 0.0000 0.0000 0.0000 0.0000 0.0000 0.0000 0.0000 0.0000 0.0000 0.0000 0.0000 0.0000 0.0000 0.0000 0.0000 0.0000 0.0000 0.0000 -68.8250 -11.1858 -16.2706 -82.7870 77.6835 -180.3726 326.2799 -37.4635 -266.7667 66.9913 -16.7800 -55.6195 6.8305 0.0000 0.0000 33.9997 0.0000 0.0000 12.4912 2.9964 -12.0472 55.9767 0.0000 0.0000 14.2179 0.0000 0.0000 15.8038 0.1654 -5.9635 70.3643 0.0000 0.0000 8.9387 0.0000 0.0000 24.4011 0.0003 -18.3651 57.2110 0.0000 0.0000 4.7877 0.0000 0.0000 36.3320 -1.7770 -41.3715 33.1756 0.0000 0.0000 5.1792 0.0000 0.0000 0.0000 0.0000 0.0000 78.1840 -15.9728 19.5952 -131.3717 79.0193 -45.2991 63.1046 -69.2720 257.5106 -70.4764 -15.1775 33.0816 12.0456 0.0000 0.0000 13.8267 0.0000 0.0000 -8.7684 6.6022 26.5474 32.6473 0.0000 0.0000 14.5563 0.0000 0.0000 -14.1628 2.5581 25.1501 37.8510 0.0000 0.0000 11.8069 0.0000 0.0000 -12.1579 -1.8681 35.0244 28.9232 0.0000 0.0000 9.3510 0.0000 0.0000 -12.7790 -11.4258 53.5515 18.6826 0.0000 0.0000 4.5462 0.0000 0.0000 0.0000 0.0000 0.0000 0.0000 0.0000 0.0000 0.0000 0.0000 0.0000 0.0000 0.0000 0.0000 0.0000 0.0000 0.0000 0.0000 0.0000 0.0000
0.0000 95.0000 0.0000 0.0000 0.0000 0.0000 0.0000 0.0000 0.0000 0.0000 0.0000 0.0000 0.0000 0.0000 0.0000 0.0000 0.0000 0.0000 0.0000 0.0000 0.0000 0.0000 0.0000 0.0000 -68.6922 -10.4947 -15.3094 -58.4392 71.7832 -151.3075 346.5019 -54.9422 -315.7193 86.5905 -12.1951 -43.0799 3.2774 0.0000 0.0000 14.2720 0.0000 0.0000 33.6463 7.1235 -17.1463 40.7474 0.0000 0.0000 12.2998 0.0000 0.0000 36.2720 -1.4182 -0.4441 64.1453 0.0000 0.0000 1.4863 0.0000 0.0000 30.5340 -0.9619 -5.7517 61.8658 0.0000 0.0000 8.0704 0.0000 0.0000 24.3776 -4.3791 -30.4555 40.1810 0.0000 0.0000 10.9770 0.0000 0.0000 0.0000 0.0000 0.0000 78.5784 -15.0966 18.3993 -110.0007 83.1246 -26.2261 91.1398 -48.4560 258.9492 -80.6825 -10.8942 76.7195 33.4162 0.0000 0.0000 62.6096 0.0000 0.0000 6.9204 4.4911 34.2964 70.9801 0.0000 0.0000 1.0633 0.0000 0.0000 22.4301 -2.8666 19.1565 91.2389 0.0000 0.0000 8.0185 0.0000 0.0000 22.2308 -11.7130 36.9602 71.0493 0.0000 0.0000 13.1322 0.0000 0.0000 11.5001 -24.1099 57.4215 47.0835 0.0000 0.0000 14.7197 0.0000 0.0000 0.0000 0.0000 0.0000 0.0000 0.0000 0.0000 0.0000 0.0000 0.0000 0.0000 0.0000 0.0000 0.0000 0.0000 0.0000 0.0000 0.0000 0.0000
0.0000 95.0000 0.0000 0.0000 0.0000 0.0000 0.0000 0.0000 0.0000 0.0000 0.0000 0.0000 0.0000 0.0000 0.0000 0.0000 0.0000 0.0000 0.0000 0.0000 0.0000 0.0000 0.0000 0.0000 -68.8327 -10.1878 -14.8258 -48.8247 67.0935 -137.2774 408.1881 -66.0295 -376.5710 77.1104 -13.9992 -45.7548 17.7244 0.0000 0.0000 43.1820 0.0000 0.0000 20.7626 7.0568 -21.2449 41.4171 0.0000 0.0000 14.1809 0.0000 0.0000 20.7528 -1.7570 4.8020 67.0727 0.0000 0.0000 10.2665 0.0000 0.0000 20.5102 -0.5433 -15.0533 49.2147 0.0000 0.0000 17.0478 0.0000 0.0000 14.1085 -7.3720 -35.5349 25.4420 0.0000 0.0000 18.4404 0.0000 0.0000 0.0000 0.0000 0.0000 78.7586 -14.5503 17.6811 -88.5583 84.5644 -5.8900 80.9339 -50.9824 275.6524 -38.8398 -34.3860 82.2684 21.2196 0.0000 0.0000 88.4634 0.0000 0.0000 8.7034 6.8167 57.8479 49.1920 0.0000 0.0000 9.4997 0.0000 0.0000 16.9981 -6.3396 45.4412 69.0408 0.0000 0.0000 14.0544 0.0000 0.0000 5.5185 -11.6343 59.0927 53.6029 0.0000 0.0000 13.6073 0.0000 0.0000 0.5892 -22.6789 68.0026 41.7774 0.0000 0.0000 17.0493 0.0000 0.0000 0.0000 0.0000 0.0000 0.0000 0.0000 0.0000 0.0000 0.0000 0.0000 0.0000 0.0000 0.0000 0.0000 0.0000 0.0000 0.0000 0.0000 0.0000
0.0000 95.0000 0.0000 0.0000 0.0000 0.0000 0.0000 0.0000 0.0000 0.0000 0.0000 0.0000 0.0000 0.0000 0.0000 0.0000 0.0000 0.0000 0.0000 0.0000 0.0000 0.0000 0.0000 0.0000 -68.9270 -9.9923 -14.5176 -45.4588 64.3699 -131.4832 357.9237 -70.1629 -334.8352 88.1365 -8.2663 -68.1413 26.7541 0.0000 0.0000 69.2462 0.0000 0.0000 28.5984 14.6952 -34.6887 38.6940 0.0000 0.0000 21.7279 0.0000 0.0000 16.2716 -3.5229 19.5086 96.3150 0.0000 0.0000 9.3377 0.0000 0.0000 20.9695 -1.2270 1.4339 82.4457 0.0000 0.0000 11.4291 0.0000 0.0000 14.8595 -9.3098 -47.1665 33.2674 0.0000 0.0000 16.5727 0.0000 0.0000 0.0000 0.0000 0.0000 79.1387 -14.1398 17.0707 -69.0773 84.9841 12.7114 -71.5811 -64.7177 438.2535 -65.5537 -16.1290 39.3364 16.6950 0.0000 0.0000 27.4934 0.0000 0.0000 1.5436 2.8256 16.4088 30.3900 0.0000 0.0000 5.2140 0.0000 0.0000 -1.7285 0.1183 12.6015 41.9738 0.0000 0.0000 11.4334 0.0000 0.0000 -7.3326 -1.4676 13.9644 36.7443 0.0000 0.0000 10.6097 0.0000 0.0000 -19.2060 -3.2833 14.3328 27.0811 0.0000 0.0000 11.8678 0.0000 0.0000 0.0000 0.0000 0.0000 0.0000 0.0000 0.0000 0.0000 0.0000 0.0000 0.0000 0.0000 0.0000 0.0000 0.0000 0.0000 0.0000 0.0000 0.0000
0.0000 95.0000 0.0000 0.0000 0.0000 0.0000 0.0000 0.0000 0.0000 0.0000 0.0000 0.0000 0.0000 0.0000 0.0000 0.0000 0.0000 0.0000 0.0000 0.0000 0.0000 0.0000 0.0000 0.0000 -69.2184 -9.6505 -13.9482 -43.5924 61.5960 -127.3657 422.5977 -54.2624 -398.2218 72.0692 -15.0930 -43.2802 21.0716 0.0000 0.0000 57.1673 0.0000 0.0000 17.8184 5.0773 -16.9664 37.6265 0.0000 0.0000 15.5497 0.0000 0.0000 15.9050 -5.3296 32.0818 84.4784 0.0000 0.0000 11.6333 0.0000 0.0000 16.6899 -1.0297 16.2724 70.7479 0.0000 0.0000 16.5450 0.0000 0.0000 7.5101 -5.0793 -19.1241 31.0483 0.0000 0.0000 18.4908 0.0000 0.0000 0.0000 0.0000 0.0000 79.2260 -13.8711 16.7222 -52.6543 84.3147 28.1648 -70.7273 -58.4128 440.2229 -65.5613 -15.8603 35.2173 16.6297 0.0000 0.0000 23.9717 0.0000 0.0000 7.3985 1.5908 10.8898 35.2289 0.0000 0.0000 7.9873 0.0000 0.0000 -2.8744 0.1156 9.3789 41.4131 0.0000 0.0000 11.6977 0.0000 0.0000 -9.4603 -1.0826 9.7233 36.1748 0.0000 0.0000 11.2507 0.0000 0.0000 -19.9500 -2.4384 7.8267 28.4589 0.0000 0.0000 12.7874 0.0000 0.0000 0.0000 0.0000 0.0000 0.0000 0.0000 0.0000 0.0000 0.0000 0.0000 0.0000 0.0000 0.0000 0.0000 0.0000 0.0000 0.0000 0.0000 0.0000
0.0000 95.0000 0.0000 0.0000 0.0000 0.0000 0.0000 0.0000 0.0000 0.0000 0.0000 0.0000 0.0000 0.0000 0.0000 0.0000 0.0000 0.0000 0.0000 0.0000 0.0000 0.0000 0.0000 0.0000 -69.4898 -9.6070 -13.8163 -42.0666 60.3183 -124.0943 381.6389 -69.8594 -358.3909 78.9805 -12.4330 -66.4862 21.1985 0.0000 0.0000 28.5141 0.0000 0.0000 23.1027 13.0801 -34.8761 36.8125 0.0000 0.0000 8.0278 0.0000 0.0000 22.1989 -3.1161 11.0151 88.7664 0.0000 0.0000 5.5224 0.0000 0.0000 23.1580 -0.8835 -6.4094 74.6820 0.0000 0.0000 12.1125 0.0000 0.0000 13.3032 -8.9092 -42.3677 35.1666 0.0000 0.0000 14.8750 0.0000 0.0000 0.0000 0.0000 0.0000 79.2501 -13.6967 16.5059 -43.6118 83.6804 36.5556 -96.5686 -71.3004 466.8074 -55.9212 -19.1375 48.7735 15.6075 0.0000 0.0000 20.6208 0.0000 0.0000 11.0459 2.2233 20.6541 38.0069 0.0000 0.0000 7.2776 0.0000 0.0000 3.7041 -0.2945 13.8605 49.9179 0.0000 0.0000 11.5223 0.0000 0.0000 -3.9082 -2.1357 18.0737 41.5314 0.0000 0.0000 12.2945 0.0000 0.0000 -14.3756 -5.0770 23.0646 29.9513 0.0000 0.0000 12.3602 0.0000 0.0000 0.0000 0.0000 0.0000 0.0000 0.0000 0.0000 0.0000 0.0000 0.0000 0.0000 0.0000 0.0000 0.0000 0.0000 0.0000 0.0000 0.0000 0.0000
0.0000 95.0000 0.0000 0.0000 0.0000 0.0000 0.0000 0.0000 0.0000 0.0000 0.0000 0.0000 0.0000 0.0000 0.0000 0.0000 0.0000 0.0000 0.0000 0.0000 0.0000 0.0000 0.0000 0.0000 -69.5128 -9.4174 -13.5392 -40.9254 58.9736 -121.7170 299.7284 -47.8043 -275.9170 99.7397 3.2182 -87.4928 39.2629 0.0000 0.0000 66.2818 0.0000 0.0000 37.0381 26.6588 -50.3287 49.6425 0.0000 0.0000 15.6834 0.0000 0.0000 18.0157 -0.9378 1.1386 121.1807 0.0000 0.0000 9.0212 0.0000 0.0000 26.4720 0.1117 -17.1939 106.5193 0.0000 0.0000 9.6025 0.0000 0.0000 11.5294 -17.5755 -75.7784 44.6702 0.0000 0.0000 8.4412 0.0000 0.0000 0.0000 0.0000 0.0000 79.4550 -13.5267 16.2434 -34.4390 82.8784 44.8286 -207.3559 -60.2260 565.4769 -29.7511 -32.7749 66.2806 18.7461 0.0000 0.0000 11.8439 0.0000 0.0000 29.8543 -2.1821 41.8545 45.2685 0.0000 0.0000 6.1905 0.0000 0.0000 23.9592 -2.0189 14.2660 74.4252 0.0000 0.0000 11.9271 0.0000 0.0000 19.9065 -8.6678 30.0625 54.9288 0.0000 0.0000 14.1487 0.0000 0.0000 17.7262 -21.7035 46.8526 31.7611 0.0000 0.0000 11.2760 0.0000 0.0000 0.0000 0.0000 0.0000 0.0000 0.0000 0.0000 0.0000 0.0000 0.0000 0.0000 0.0000 0.0000 0.0000 0.0000 0.0000 0.0000 0.0000 0.0000
